<svg viewBox="0 0 64 64" xmlns="http://www.w3.org/2000/svg">
  <defs>
    <linearGradient id="gold" x1="0" y1="0" x2="1" y2="1">
      <stop offset="0" stop-color="#F2C36B"/>
      <stop offset="1" stop-color="#D18E23"/>
    </linearGradient>
    <radialGradient id="tile" cx="0.3" cy="0.22" r="1.15">
      <stop offset="0" stop-color="#242B36"/>
      <stop offset="0.55" stop-color="#161A20"/>
      <stop offset="1" stop-color="#0F1218"/>
    </radialGradient>
  </defs>
  <rect x="0" y="0" width="64" height="64" rx="14" fill="url(#tile)"/>
  <circle cx="32" cy="32" r="24.6" fill="none" stroke="url(#gold)" stroke-width="1.4" opacity="0.55"/>
  <g>
    <path d="M32 32 C 32 21.1, 39.8 14.8, 49.2 16.4 C 49.2 25.8, 41.4 32, 32 32 Z" fill="url(#gold)"/>
    <path d="M32 32 C 32 21.1, 39.8 14.8, 49.2 16.4 C 49.2 25.8, 41.4 32, 32 32 Z" fill="url(#gold)" transform="rotate(120 32 32)"/>
    <path d="M32 32 C 32 21.1, 39.8 14.8, 49.2 16.4 C 49.2 25.8, 41.4 32, 32 32 Z" fill="url(#gold)" transform="rotate(240 32 32)"/>
    <circle cx="32" cy="32" r="4.2" fill="#161A20" stroke="url(#gold)" stroke-width="2.2"/>
  </g>
</svg>
